<?xml version="1.0" standalone="no"?>
<!DOCTYPE svg PUBLIC "-//W3C//DTD SVG 20010904//EN"
 "http://www.w3.org/TR/2001/REC-SVG-20010904/DTD/svg10.dtd">
<svg version="1.0" xmlns="http://www.w3.org/2000/svg"
 width="180.000000pt" height="180.000000pt" viewBox="0 0 180.000000 180.000000"
 preserveAspectRatio="xMidYMid meet">

<g transform="translate(0.000000,180.000000) scale(0.100000,-0.100000)"
fill="#000000" stroke="none">
<path d="M843 1594 c3 -37 -24 -40 -35 -4 -6 23 -7 23 -5 -5 2 -25 6 -30 27
-30 19 0 26 6 28 24 2 13 -1 28 -7 34 -7 7 -10 1 -8 -19z"/>
<path d="M930 1590 c0 -19 4 -29 10 -25 6 4 16 2 23 -4 10 -7 13 -2 12 22 0
25 -5 33 -22 35 -20 3 -23 -1 -23 -28z m38 8 c-6 -18 -28 -21 -28 -4 0 9 7 16
16 16 9 0 14 -5 12 -12z"/>
<path d="M695 1590 c-11 -5 -15 -9 -9 -9 5 -1 15 -13 22 -28 l12 -28 -6 29
c-3 18 0 32 8 37 17 11 -1 10 -27 -1z"/>
<path d="M1055 1588 c-12 -36 -9 -52 10 -56 17 -2 17 -1 5 7 -9 7 -11 14 -5
19 13 9 16 42 4 42 -5 0 -12 -6 -14 -12z"/>
<path d="M585 1540 c-3 -5 -3 -21 1 -35 6 -23 8 -24 19 -9 6 9 17 14 23 10 23
-14 11 9 -13 27 -14 10 -26 13 -30 7z m25 -20 c0 -5 -2 -10 -4 -10 -3 0 -8 5
-11 10 -3 6 -1 10 4 10 6 0 11 -4 11 -10z"/>
<path d="M1224 1505 c-9 -14 -14 -28 -11 -31 3 -3 13 8 22 25 19 37 12 41 -11
6z"/>
<path d="M504 1476 c6 -16 2 -18 -24 -12 -28 5 -30 4 -20 -14 13 -25 32 -36
23 -14 -5 14 -2 16 20 10 31 -7 34 2 11 30 -15 18 -15 18 -10 0z"/>
<path d="M1296 1461 c-11 -12 -17 -23 -15 -25 8 -8 41 23 37 34 -2 7 -11 3
-22 -9z"/>
<path d="M1338 1436 c-19 -14 -26 -42 -8 -31 9 6 34 45 28 45 -2 0 -11 -7 -20
-14z"/>
<path d="M1415 1389 c4 -5 -1 -19 -11 -30 -9 -10 -12 -19 -7 -19 6 0 16 7 23
15 7 8 17 12 24 8 6 -3 2 3 -8 15 -20 23 -32 29 -21 11z"/>
<path d="M345 1340 c5 -15 2 -20 -11 -20 -23 0 -15 -6 18 -14 26 -6 26 -6 12
24 -17 34 -29 40 -19 10z"/>
<path d="M587 1286 c-128 -48 -215 -214 -163 -315 18 -35 86 -97 154 -140 28
-18 52 -37 52 -42 0 -5 6 -9 13 -9 21 0 77 -57 92 -94 24 -58 -10 -133 -76
-167 -51 -25 -103 -25 -130 2 -39 39 -16 119 67 229 23 30 22 30 -9 -5 -71
-78 -104 -174 -77 -225 29 -55 147 -43 211 21 73 73 74 160 3 238 -19 21 -34
41 -34 43 0 3 14 11 30 18 17 7 29 15 26 17 -2 2 -18 -3 -36 -12 l-32 -16 -61
47 c-96 74 -126 105 -137 143 -20 71 29 189 98 236 63 43 157 30 211 -29 38
-41 41 -127 8 -200 -24 -52 -23 -82 2 -53 20 25 45 140 37 178 -9 48 -43 98
-83 121 -42 25 -119 32 -166 14z"/>
<path d="M1074 1281 c-114 -52 -189 -176 -209 -347 l-7 -60 -31 3 -32 3 33
-10 c31 -10 32 -12 32 -64 0 -110 45 -290 81 -322 19 -17 21 -17 37 0 28 28
21 153 -14 246 -39 103 -39 227 0 346 45 141 129 209 256 208 96 0 138 -49
127 -146 -13 -107 -87 -207 -186 -251 -28 -12 -76 -22 -123 -25 -57 -3 -78 -8
-78 -18 0 -8 5 -14 11 -14 5 0 72 -62 147 -137 161 -163 225 -203 317 -203 58
0 100 14 90 30 -4 6 -18 4 -35 -5 -83 -43 -158 -3 -266 143 -31 42 -79 100
-107 128 l-49 52 33 7 c56 12 128 56 174 108 102 112 115 286 25 332 -42 22
-174 20 -226 -4z m-106 -663 c8 -156 -21 -116 -37 50 -5 53 -6 101 -3 107 13
21 35 -66 40 -157z"/>
<path d="M1470 1282 c-19 -16 -21 -22 -11 -38 11 -18 12 -17 6 4 -7 23 9 32
18 10 3 -8 6 -6 6 5 1 20 17 23 24 5 4 -8 6 -9 6 -2 1 6 -5 17 -13 23 -10 9
-19 7 -36 -7z"/>
<path d="M266 1241 c-2 -3 7 -20 20 -36 21 -26 24 -28 24 -9 0 11 5 25 11 31
7 7 2 12 -21 15 -17 3 -33 2 -34 -1z m34 -21 c0 -5 -2 -10 -4 -10 -3 0 -8 5
-11 10 -3 6 -1 10 4 10 6 0 11 -4 11 -10z"/>
<path d="M1514 1175 c-18 -13 -18 -14 5 -8 21 5 22 4 11 -16 -15 -29 -9 -34
24 -22 31 12 35 21 6 14 -21 -5 -28 11 -10 22 14 9 12 25 -3 25 -7 0 -22 -7
-33 -15z"/>
<path d="M238 1138 c10 -13 9 -17 -10 -22 -19 -5 -20 -8 -8 -16 10 -6 16 -6
18 0 2 6 13 10 23 10 24 0 17 15 -14 32 -19 10 -20 9 -9 -4z"/>
<path d="M220 1080 c-22 -7 -21 -8 13 -9 23 -1 36 3 32 9 -7 11 -10 11 -45 0z"/>
<path d="M1550 1050 c-12 -7 -12 -13 -4 -27 16 -26 51 -28 59 -4 11 37 -19 54
-55 31z m50 -15 c0 -21 -28 -31 -43 -16 -9 9 -8 14 3 21 22 14 40 12 40 -5z"/>
<path d="M1557 923 c-4 -3 -7 -13 -7 -22 0 -11 3 -10 15 5 10 13 14 14 15 5 0
-10 3 -11 14 -2 11 10 15 8 19 -6 4 -14 5 -13 6 5 1 18 -4 22 -27 22 -16 0
-32 -3 -35 -7z"/>
<path d="M181 903 c-1 -19 4 -23 29 -23 17 0 30 5 30 11 0 5 -4 8 -9 5 -5 -4
-12 0 -14 6 -4 10 -6 10 -6 1 -1 -19 -19 -16 -24 5 -4 13 -5 11 -6 -5z"/>
<path d="M768 863 c7 -3 16 -2 19 1 4 3 -2 6 -13 5 -11 0 -14 -3 -6 -6z"/>
<path d="M1552 793 c2 -22 8 -28 28 -28 16 0 26 6 28 19 4 21 -13 36 -41 36
-14 0 -18 -6 -15 -27z m32 11 c23 -9 20 -34 -4 -34 -13 0 -20 7 -20 20 0 22 1
23 24 14z"/>
<path d="M200 800 c-13 -8 -12 -10 3 -10 19 0 23 -20 7 -36 -7 -7 0 -9 22 -5
19 3 26 6 16 9 -21 4 -24 38 -5 45 6 3 3 6 -8 6 -11 0 -27 -4 -35 -9z"/>
<path d="M220 655 c0 -5 5 -17 10 -25 9 -13 10 -13 10 1 0 8 12 20 28 26 26
10 26 10 -10 9 -21 0 -38 -5 -38 -11z"/>
<path d="M336 521 c-4 -5 -3 -17 1 -27 5 -14 3 -16 -12 -11 -15 6 -16 5 -5 -8
16 -19 33 -9 27 16 -7 26 9 34 22 12 6 -10 11 -13 11 -7 0 11 -20 34 -31 34
-4 0 -10 -4 -13 -9z"/>
<path d="M420 415 c-7 -9 -19 -14 -27 -11 -16 7 -17 -6 -1 -22 15 -15 32 -16
23 -1 -4 5 1 19 11 30 9 10 15 19 12 19 -3 0 -11 -7 -18 -15z"/>
<path d="M490 355 c-18 -21 -8 -50 19 -53 37 -6 52 26 25 52 -19 20 -28 20
-44 1z m45 -25 c0 -8 -10 -16 -22 -18 -22 -3 -32 16 -16 32 12 11 38 2 38 -14z"/>
<path d="M1197 313 c-14 -13 -6 -33 13 -33 21 0 27 -15 10 -23 -6 -3 -5 -4 2
-3 23 5 22 36 -1 36 -23 0 -28 15 -8 23 6 3 7 6 1 6 -6 1 -14 -2 -17 -6z"/>
<path d="M601 281 c-8 -15 -7 -23 5 -35 26 -27 58 -12 52 25 -4 31 -42 38 -57
10z m44 -16 c0 -28 -29 -25 -33 3 -3 19 0 23 15 20 10 -2 18 -12 18 -23z"/>
<path d="M1116 272 c-4 -8 -17 -12 -27 -9 -26 7 -24 -5 6 -33 21 -20 25 -21
31 -7 9 24 1 65 -10 49z m4 -32 c0 -5 -4 -10 -10 -10 -5 0 -10 5 -10 10 0 6 5
10 10 10 6 0 10 -4 10 -10z"/>
<path d="M726 234 c-5 -18 -3 -30 6 -35 20 -13 38 -11 38 5 0 8 3 22 7 32 4
12 3 15 -6 10 -6 -4 -18 -3 -25 3 -11 9 -15 6 -20 -15z m34 -20 c0 -9 -5 -14
-12 -12 -18 6 -21 28 -4 28 9 0 16 -7 16 -16z"/>
<path d="M865 236 l20 -15 -20 -1 -20 -1 20 -11 c19 -12 19 -12 -5 -19 -25 -7
-25 -7 3 -8 26 -1 28 2 25 31 -2 24 -9 34 -23 36 l-20 4 20 -16z"/>
<path d="M967 243 c-10 -10 -8 -33 3 -33 5 0 7 7 3 16 -4 12 -1 15 13 12 28
-5 30 -36 2 -48 -17 -7 -18 -9 -4 -7 24 3 41 29 33 51 -6 16 -38 22 -50 9z"/>
</g>
</svg>
